<?xml version="1.0" encoding="UTF-8"?>
<!DOCTYPE svg PUBLIC "-//W3C//DTD SVG 1.1//EN" "http://www.w3.org/Graphics/SVG/1.1/DTD/svg11.dtd">
<svg xmlns="http://www.w3.org/2000/svg" version="1.1" width="500px" height="500px" style="shape-rendering:geometricPrecision; text-rendering:geometricPrecision; image-rendering:optimizeQuality; fill-rule:evenodd; clip-rule:evenodd" xmlns:xlink="http://www.w3.org/1999/xlink">
<g><path style="opacity:0.188" fill="#4f5d61" d="M 239.5,127.5 C 243.122,127.322 246.456,127.989 249.5,129.5C 245.922,129.451 242.589,128.785 239.5,127.5 Z"/></g>
<g><path style="opacity:1" fill="#daf8f9" d="M 239.5,127.5 C 242.589,128.785 245.922,129.451 249.5,129.5C 253.687,129.395 257.687,130.228 261.5,132C 275.422,137.628 288.756,144.294 301.5,152C 323.575,160.314 334.575,152.814 334.5,129.5C 337.833,129.5 341.167,129.5 344.5,129.5C 345.275,134.797 345.608,140.13 345.5,145.5C 344.512,150.64 344.179,155.974 344.5,161.5C 341.429,198.071 321.596,217.737 285,220.5C 266.899,219.397 252.232,211.731 241,197.5C 233.833,187.833 226.667,178.167 219.5,168.5C 206.074,152.616 193.241,152.616 181,168.5C 176.073,181.068 176.74,193.401 183,205.5C 195.487,225.788 213.654,237.454 237.5,240.5C 234.939,241.66 232.272,242.66 229.5,243.5C 228.571,242.311 228.238,240.978 228.5,239.5C 226.774,239.185 225.107,239.019 223.5,239C 224.925,240.714 224.592,242.047 222.5,243C 222.966,244.299 222.966,245.799 222.5,247.5C 223.822,247.67 224.989,247.337 226,246.5C 226.84,249.464 227.84,249.797 229,247.5C 229.833,248.333 230.667,249.167 231.5,250C 228.136,251.099 224.97,252.599 222,254.5C 219.258,252.442 216.091,251.442 212.5,251.5C 215.322,250.493 218.322,249.66 221.5,249C 202.726,242.364 187.226,231.198 175,215.5C 162.167,196.366 160.5,176.366 170,155.5C 179.893,141.302 193.393,132.802 210.5,130C 220.062,127.977 229.729,127.143 239.5,127.5 Z"/></g>
<g><path style="opacity:0.314" fill="#859196" d="M 345.5,145.5 C 346.336,150.956 346.003,156.289 344.5,161.5C 344.179,155.974 344.512,150.64 345.5,145.5 Z"/></g>
<g><path style="opacity:1" fill="#daf8f9" d="M 237.5,240.5 C 259.467,241.468 281.467,241.801 303.5,241.5C 302.257,245.929 299.923,249.762 296.5,253C 281.167,253.333 265.833,253.667 250.5,254C 231.538,259.791 223.705,272.291 227,291.5C 231.157,313.99 241.657,332.824 258.5,348C 274.727,358.742 292.394,361.742 311.5,357C 315.139,355.675 318.806,354.508 322.5,353.5C 325.268,354.413 327.934,354.746 330.5,354.5C 331.43,351.106 333.097,350.939 335.5,354C 333.161,355.343 330.828,356.676 328.5,358C 328.658,359.587 327.991,361.087 326.5,362.5C 312.628,370.225 297.628,374.725 281.5,376C 253.486,378.885 226.152,375.885 199.5,367C 179.31,360.145 164.81,346.979 156,327.5C 148.47,301.576 155.636,280.91 177.5,265.5C 188.362,259.009 200.029,254.343 212.5,251.5C 216.091,251.442 219.258,252.442 222,254.5C 224.97,252.599 228.136,251.099 231.5,250C 230.667,249.167 229.833,248.333 229,247.5C 227.84,249.797 226.84,249.464 226,246.5C 224.989,247.337 223.822,247.67 222.5,247.5C 222.966,245.799 222.966,244.299 222.5,243C 224.592,242.047 224.925,240.714 223.5,239C 225.107,239.019 226.774,239.185 228.5,239.5C 228.238,240.978 228.571,242.311 229.5,243.5C 232.272,242.66 234.939,241.66 237.5,240.5 Z"/></g>
<g><path style="opacity:0.998" fill="#c5dedf" d="M 326.5,362.5 C 327.991,361.087 328.658,359.587 328.5,358C 330.828,356.676 333.161,355.343 335.5,354C 333.097,350.939 331.43,351.106 330.5,354.5C 327.934,354.746 325.268,354.413 322.5,353.5C 333.975,347.361 344.641,340.028 354.5,331.5C 357.212,332.69 358.379,334.69 358,337.5C 349.094,347.913 338.594,356.246 326.5,362.5 Z"/></g>
</svg>
